0
SECTION
2
HEADER
9
$INSUNITS
70
4
9
$ACADVER
1
AC1014
9
$HANDSEED
5
FFFF
0
ENDSEC
0
SECTION
2
TABLES
0
TABLE
2
VPORT
5
8
100
AcDbSymbolTable
0
ENDTAB
0
TABLE
2
LTYPE
5
5
100
AcDbSymbolTable
0
LTYPE
5
14
100
AcDbSymbolTableRecord
100
AcDbLinetypeTableRecord
2
BYBLOCK
70
0
0
LTYPE
5
15
100
AcDbSymbolTableRecord
100
AcDbLinetypeTableRecord
2
BYLAYER
70
0
0
LTYPE
5
16
100
AcDbSymbolTableRecord
100
AcDbLinetypeTableRecord
2
DASHED
70
0
3
Dashed __ __ __ __ __ __ __ __ __ __ __ __ __ _
72
65
73
2
40
0.75
49
0.5
74
0
49
-0.25
74
0
0
ENDTAB
0
TABLE
2
LAYER
5
2
100
AcDbSymbolTable
70
2
0
LAYER
5
50
100
AcDbSymbolTableRecord
100
AcDbLayerTableRecord
2
0
70
0
62
7
6
CONTINUOUS
0
ENDTAB
0
TABLE
2
STYLE
5
3
100
AcDbSymbolTable
70
1
0
STYLE
5
11
100
AcDbSymbolTableRecord
100
AcDbTextStyleTableRecord
2
STANDARD
70
0
0
ENDTAB
0
TABLE
2
VIEW
5
6
100
AcDbSymbolTable
70
0
0
ENDTAB
0
TABLE
2
UCS
5
7
100
AcDbSymbolTable
70
0
0
ENDTAB
0
TABLE
2
APPID
5
9
100
AcDbSymbolTable
70
2
0
APPID
5
12
100
AcDbSymbolTableRecord
100
AcDbRegAppTableRecord
2
ACAD
70
0
0
ENDTAB
0
TABLE
2
DIMSTYLE
5
A
100
AcDbSymbolTable
70
1
0
ENDTAB
0
TABLE
2
BLOCK_RECORD
5
1
100
AcDbSymbolTable
70
1
0
BLOCK_RECORD
5
1F
100
AcDbSymbolTableRecord
100
AcDbBlockTableRecord
2
*MODEL_SPACE
0
BLOCK_RECORD
5
1B
100
AcDbSymbolTableRecord
100
AcDbBlockTableRecord
2
*PAPER_SPACE
0
ENDTAB
0
ENDSEC
0
SECTION
2
BLOCKS
0
BLOCK
5
20
100
AcDbEntity
100
AcDbBlockBegin
2
*MODEL_SPACE
0
ENDBLK
5
21
100
AcDbEntity
100
AcDbBlockEnd
0
BLOCK
5
1C
100
AcDbEntity
100
AcDbBlockBegin
2
*PAPER_SPACE
0
ENDBLK
5
1D
100
AcDbEntity
100
AcDbBlockEnd
0
ENDSEC
0
SECTION
2
ENTITIES
0
SPLINE
5
100
100
AcDbEntity
8
0
100
AcDbSpline
70
0
71
3
72
16
73
12
74
0
42
0.000000001
43
0.0000000001
44
0.0000000001
40
0
40
0
40
0
40
0
40
0.096700019309796895
40
0.096700019309796895
40
0.21486114924600802
40
0.21486114924600802
40
0.29777133506150855
40
0.29777133506150855
40
0.34053979462192013
40
0.34053979462192013
40
0.38650782671933931
40
0.38650782671933931
40
0.38650782671933931
40
0.38650782671933931
10
-19.832815022298377
20
3.4652512965111115
30
0
10
-19.510481624599052
20
3.4652512965111084
30
0
10
-19.261760014149974
20
3.5397481606282346
30
0
10
-18.859291082411872
20
3.7073446482111843
30
0
10
-18.648405531514136
20
3.8423118931689664
30
0
10
-18.361637590507797
20
4.1304458526877283
30
0
10
-18.26374699571635
20
4.2668428198685246
30
0
10
-18.161750916264268
20
4.5007426328137541
30
0
10
-18.136048445221459
20
4.5829813956370504
30
0
10
-18.100372067069628
20
4.7596699996949106
30
0
10
-18.092185569897868
20
4.8522655619572159
30
0
10
-18.092185569897868
20
4.9456360542408619
30
0
0
LINE
5
101
100
AcDbEntity
8
0
100
AcDbLine
10
-18.092185569897865
20
4.9456360542408619
30
0
11
-18.092185569897868
21
6.9456360542408611
31
0
0
SPLINE
5
102
100
AcDbEntity
8
0
100
AcDbSpline
70
0
71
3
72
16
73
12
74
0
42
0.000000001
43
0.0000000001
44
0.0000000001
40
0
40
0
40
0
40
0
40
0.052800636628012931
40
0.052800636628012931
40
0.099746777630359051
40
0.099746777630359051
40
0.15957745425866521
40
0.15957745425866521
40
0.20643516398802692
40
0.20643516398802692
40
0.25519476519370587
40
0.25519476519370587
40
0.25519476519370587
40
0.25519476519370587
10
-18.092185569897868
20
6.9456360542408611
30
0
10
-18.092185569897868
20
7.1216381763342369
30
0
10
-18.121273621194554
20
7.2904110686241577
30
0
10
-18.249162781311842
20
7.5967611057252915
30
0
10
-18.335902978353523
20
7.7257068354152549
30
0
10
-18.576643711472489
20
7.9855124577096053
30
0
10
-18.742189152733943
20
8.1067747423139362
30
0
10
-19.055194329260047
20
8.2719402536658908
30
0
10
-19.202090474695218
20
8.3286562651467246
30
0
10
-19.510699981921039
20
8.4067283453418131
30
0
10
-19.669793812856366
20
8.4260208119706128
30
0
10
-19.832815022298377
20
8.426020811970611
30
0
0
LINE
5
103
100
AcDbEntity
8
0
100
AcDbLine
10
-19.832815022298377
20
8.426020811970611
30
0
11
-37.66469661623168
21
8.4260208119703588
31
0
0
SPLINE
5
104
100
AcDbEntity
8
0
100
AcDbSpline
70
0
71
3
72
16
73
12
74
0
42
0.000000001
43
0.0000000001
44
0.0000000001
40
0
40
0
40
0
40
0
40
0.19511430967771556
40
0.19511430967771556
40
0.30312585415357185
40
0.30312585415357185
40
0.35913140075725652
40
0.35913140075725652
40
0.40457221028234241
40
0.40457221028234241
40
0.45538911975205776
40
0.45538911975205776
40
0.45538911975205776
40
0.45538911975205776
10
-37.66469661623168
20
8.4260208119703588
30
0
10
-38.315077648490728
20
8.4260208119703517
30
0
10
-39.002802746360473
20
8.4410378283864524
30
0
10
-39.886997104978846
20
8.3217517109662182
30
0
10
-40.154108125571071
20
8.2527581492396109
30
0
10
-40.467900000516792
20
8.0864086785570031
30
0
10
-40.566282285446931
20
8.0146812036931685
30
0
10
-40.709099727406148
20
7.8473770064864832
30
0
10
-40.756378119846595
20
7.7633911753589269
30
0
10
-40.823382615508166
20
7.5657143544526644
30
0
10
-40.837115083055629
20
7.4556845077781499
30
0
10
-40.837115083055629
20
7.3456360542408614
30
0
0
LINE
5
105
100
AcDbEntity
8
0
100
AcDbLine
10
-40.837115083055629
20
7.3456360542408632
30
0
11
-40.837115083055629
21
4.5456360542408616
31
0
0
SPLINE
5
106
100
AcDbEntity
8
0
100
AcDbSpline
70
0
71
3
72
16
73
12
74
0
42
0.000000001
43
0.0000000001
44
0.0000000001
40
0
40
0
40
0
40
0
40
0.037779923286330931
40
0.037779923286330931
40
0.067880060518088772
40
0.067880060518088772
40
0.10103308885156012
40
0.10103308885156012
40
0.15254692620553909
40
0.15254692620553909
40
0.31262818493660161
40
0.31262818493660161
40
0.31262818493660161
40
0.31262818493660161
10
-40.837115083055629
20
4.5456360542408616
30
0
10
-40.837115083055629
20
4.4197029766197584
30
0
10
-40.819132158286308
20
4.2943159217838964
30
0
10
-40.733970835910768
20
4.0842545252468909
30
0
10
-40.67990535986354
20
4.0022290621387562
30
0
10
-40.5325813024795
20
3.8509297461251375
30
0
10
-40.440343606843065
20
3.788399874319099
30
0
10
-40.188750398520099
20
3.6602705101245374
30
0
10
-40.008542527924426
20
3.6059031010277014
30
0
10
-39.206493774724095
20
3.4457185328785349
30
0
10
-38.410999738782493
20
3.4652512965115405
30
0
10
-37.66469661623168
20
3.465251296511529
30
0
0
LINE
5
107
100
AcDbEntity
8
0
100
AcDbLine
10
-37.66469661623168
20
3.4652512965115285
30
0
11
-19.832815022298377
21
3.4652512965111115
31
0
0
ENDSEC
0
SECTION
2
OBJECTS
0
DICTIONARY
5
C
100
AcDbDictionary
3
ACAD_GROUP
350
D
3
ACAD_MLINESTYLE
350
17
0
DICTIONARY
5
D
100
AcDbDictionary
0
DICTIONARY
5
1A
330
C
100
AcDbDictionary
0
DICTIONARY
5
17
100
AcDbDictionary
0
ENDSEC
0
EOF
